<svg width="400px" height="75px" viewBox="0 0 400 75" version="1.1" xmlns="http://www.w3.org/2000/svg" xmlns:xlink="http://www.w3.org/1999/xlink">
  <g id="Home" stroke="none" stroke-width="1" fill="none" fill-rule="evenodd">
    <g id="logo-wordmark" transform="translate(-200.000000, -156.000000)" fill="#172A3B" fill-rule="nonzero">
      <path d="M327.688581,169.017766 C326.044983,167.807107 323.349481,167 321.179931,167 L296,167 L296,220 L306.519031,220 L306.519031,199.755076 L321.179931,199.755076 C323.415225,199.755076 325.782007,199.149746 327.688581,197.73731 C328.871972,196.862944 331.567474,194.172589 332.356401,192.961929 C333.474048,191.280457 334,189.329949 334,187.244924 L334,179.711929 C334,177.761421 333.474048,175.474619 332.356401,173.860406 C331.50173,172.784264 328.871972,170.02665 327.688581,169.017766 Z M323,186.866667 L320.75969,189 L306,189 L306,177 L320.693798,177 L322.934109,179.133333 L322.934109,186.866667 L323,186.866667 Z M344,167 L355,167 L355,220 L344,220 L344,167 Z M399.068852,168.6875 C397.590164,167.81 395.372131,167 393.221311,167 L379.778689,167 C377.560656,167 375.477049,167.81 373.931148,168.6875 C371.981967,169.835 368.554098,173.6825 367.478689,175.1 C366.336066,176.7875 366,178.745 366,180.7025 L366,207.365 C366,209.255 366.336066,211.145 367.478689,212.8325 C368.554098,214.3175 371.981967,218.165 373.931148,219.3125 C375.409836,220.19 377.560656,221 379.778689,221 L393.221311,221 C395.372131,221 397.522951,220.19 399.068852,219.3125 C401.018033,218.165 404.378689,214.3175 405.521311,212.8325 C406.663934,211.145 407,209.1875 407,207.365 L407,180.7025 C407,178.745 406.663934,176.7875 405.521311,175.1 C404.378689,173.6825 401.018033,169.835 399.068852,168.6875 Z M396,206.720081 L392.778547,210 L380.089965,210 L377,206.720081 L377,180.346856 L380.221453,177 L392.910035,177 L396,180.279919 L396,206.720081 Z M445.462738,167 L456,167 L456,220 L445.331023,220 L428.537262,188.791878 L428.537262,220 L418,220 L418,167 L428.800693,167 L445.39688,198.611675 L445.39688,167 L445.462738,167 Z M468,167 L502,167 L502,177.34474 L478.567568,177.34474 L478.567568,188.226869 L501.212355,188.226869 L501.212355,198.57161 L478.567568,198.57161 L478.567568,209.65526 L502,209.65526 L502,220 L468,220 L468,167 Z M513,167 L547,167 L547,177.34474 L523.567568,177.34474 L523.567568,188.226869 L546.212355,188.226869 L546.212355,198.57161 L523.567568,198.57161 L523.567568,209.65526 L547,209.65526 L547,220 L513,220 L513,167 Z M588.776167,198.94797 C589.436393,198.611675 590.162641,198.208122 590.888889,197.73731 C592.077295,196.862944 594.784219,194.172589 595.57649,192.961929 C596.698873,191.280457 597.227053,189.329949 597.227053,187.244924 L597.227053,179.711929 C597.227053,177.761421 596.698873,175.474619 595.57649,173.860406 C594.718196,172.717005 592.077295,169.959391 590.888889,169.017766 C589.238325,167.807107 586.531401,167 584.352657,167 L559,167 L559,220 L569.563607,220 L569.563607,199.755076 L577.882448,199.755076 L588.181965,220 L600,220 C600,219.932741 593.00161,206.884518 588.776167,198.94797 Z M586,186.866667 L583.750973,189 L569,189 L569,177 L583.750973,177 L586,179.133333 L586,186.866667 Z M260.866667,166.8 C262.866667,168.825 264,171.525 264,174.4275 L264,191.5725 C264,194.475 262.866667,197.175 260.866667,199.2 L253.333333,206.8275 C251.333333,208.8525 248.666667,210 245.8,210 L200,210 L200,199.2 L245.8,199.2 L253.333333,191.5725 L253.333333,174.4275 L245.8,166.8 L200,166.8 L200,156 L245.8,156 C248.666667,156 251.333333,157.1475 253.333333,159.1725 L260.866667,166.8 Z M243,188 L200,188 L200,177 L243,177 L243,188 Z M200,220 L227,220 L227,231 L200,231 L200,220 Z" id="Shape"></path>
    </g>
  </g>
</svg>